<svg width="147" height="62" viewBox="0 0 147 62" fill="none" xmlns="http://www.w3.org/2000/svg">
<path d="M13.125 21.7812C12.625 21.7188 12.1979 21.6771 11.8438 21.6562C11.4896 21.6354 11.1667 21.625 10.875 21.625H0L0.15625 20.625L2.125 20.2188C2.1875 20.0104 2.25 19.75 2.3125 19.4375C2.39583 19.1042 2.5 18.6562 2.625 18.0938C2.75 17.5312 2.91667 16.7708 3.125 15.8125L4.5 9.34375C4.8125 7.86458 5.02083 6.79167 5.125 6.125C5.25 5.4375 5.32292 4.95833 5.34375 4.6875L3.5625 4.28125L3.84375 3.28125H14.125C14.3542 3.28125 14.5833 3.28125 14.8125 3.28125C15.0417 3.26042 15.2917 3.23958 15.5625 3.21875C15.8542 3.19792 16.1562 3.17708 16.4688 3.15625L16.0938 7.125L14.8438 7.28125L14.4375 4.6875C14.3542 4.66667 14.2083 4.65625 14 4.65625C13.8125 4.63542 13.6042 4.625 13.375 4.625H9.28125C8.88542 4.625 8.55208 4.63542 8.28125 4.65625C8.01042 4.65625 7.72917 4.67708 7.4375 4.71875C7.41667 4.76042 7.36458 4.96875 7.28125 5.34375C7.19792 5.71875 7.09375 6.16667 6.96875 6.6875C6.84375 7.20833 6.71875 7.73958 6.59375 8.28125C6.48958 8.80208 6.39583 9.25 6.3125 9.625L5.0625 15.5C4.97917 15.8958 4.875 16.4271 4.75 17.0938C4.625 17.7396 4.5 18.3542 4.375 18.9375C4.27083 19.5208 4.20833 19.9167 4.1875 20.125C4.41667 20.1458 4.66667 20.1667 4.9375 20.1875C5.20833 20.2083 5.48958 20.2188 5.78125 20.2188H9.46875C10.0938 20.2188 10.5833 20.2083 10.9375 20.1875C11.3125 20.1667 11.5625 20.1354 11.6875 20.0938L13.7188 17.1875L15.0312 17.4375L13.125 21.7812ZM11.0938 15.1562L11.1562 13C11.0521 12.9583 10.8958 12.9271 10.6875 12.9062C10.4792 12.8854 10.2188 12.875 9.90625 12.875H7.21875C6.98958 12.875 6.70833 12.8854 6.375 12.9062C6.04167 12.9062 5.66667 12.9167 5.25 12.9375L5.59375 11.4688C5.98958 11.4896 6.34375 11.5 6.65625 11.5C6.96875 11.5 7.23958 11.5 7.46875 11.5H10.125C10.4375 11.5 10.6979 11.4896 10.9062 11.4688C11.1146 11.4479 11.2917 11.4271 11.4375 11.4062L12.3438 9.1875H13.4688L12.2188 15.1562H11.0938Z" fill="white"/>
<path d="M23.9062 9.28125C23.2396 9.28125 22.5625 9.57292 21.875 10.1562C21.2083 10.7396 20.6562 11.5833 20.2188 12.6875C19.7812 13.7708 19.5625 15.0833 19.5625 16.625C19.5625 17.7708 19.8229 18.6771 20.3438 19.3438C20.8854 19.9896 21.5521 20.3125 22.3438 20.3125C22.7188 20.3125 23.2292 20.1562 23.875 19.8438C24.5208 19.5104 25.1458 18.8958 25.75 18L26.4062 18.875C25.7604 19.7708 25.0104 20.5 24.1562 21.0625C23.3229 21.6042 22.5729 21.875 21.9062 21.875C21.0729 21.875 20.3333 21.6875 19.6875 21.3125C19.0417 20.9375 18.5312 20.3958 18.1562 19.6875C17.8021 18.9792 17.625 18.1458 17.625 17.1875C17.625 16.0625 17.8021 14.9583 18.1562 13.875C18.5312 12.7917 19.0521 11.8229 19.7188 10.9688C20.3854 10.0938 21.1667 9.39583 22.0625 8.875C22.9792 8.35417 23.9792 8.09375 25.0625 8.09375C25.7917 8.09375 26.3854 8.22917 26.8438 8.5C27.3229 8.75 27.5625 9.11458 27.5625 9.59375C27.5625 9.82292 27.5104 10.0417 27.4062 10.25C27.3021 10.4375 27.1354 10.6146 26.9062 10.7812C26.3854 10.3021 25.875 9.9375 25.375 9.6875C24.875 9.41667 24.3854 9.28125 23.9062 9.28125Z" fill="white"/>
<path d="M31.8125 11.75C31.6875 12.2292 31.5729 12.6875 31.4688 13.125C31.3646 13.5625 31.2396 14.0833 31.0938 14.6875C30.9479 15.2917 30.7396 16.1042 30.4688 17.125H30.1875C30.5625 16.1458 31.0208 15.1354 31.5625 14.0938C32.1042 13.0521 32.7083 12.0729 33.375 11.1562C34.0417 10.2396 34.75 9.5 35.5 8.9375C36.25 8.375 37.0208 8.09375 37.8125 8.09375C38.375 8.09375 38.8021 8.26042 39.0938 8.59375C39.4062 8.92708 39.5625 9.36458 39.5625 9.90625C39.5625 10.2396 39.4792 10.7604 39.3125 11.4688C39.1458 12.1771 38.9375 12.9896 38.6875 13.9062C38.4375 14.8021 38.1771 15.6979 37.9062 16.5938C37.6562 17.4896 37.4479 18.2917 37.2812 19C37.1146 19.7083 37.0312 20.2188 37.0312 20.5312C37.5104 20.2812 37.9583 19.9688 38.375 19.5938C38.7917 19.2188 39.2083 18.7708 39.625 18.25L40.2812 19.0625C39.7604 19.6667 39.2604 20.1771 38.7812 20.5938C38.3021 21.0104 37.8542 21.3333 37.4375 21.5625C37.0208 21.7708 36.6458 21.875 36.3125 21.875C35.9792 21.875 35.7292 21.7708 35.5625 21.5625C35.3958 21.3333 35.3125 21.0833 35.3125 20.8125C35.3125 20.5417 35.3958 20.0625 35.5625 19.375C35.75 18.6667 35.9688 17.8646 36.2188 16.9688C36.4688 16.0521 36.7188 15.1354 36.9688 14.2188C37.2188 13.3021 37.4271 12.4792 37.5938 11.75C37.7812 11.0208 37.875 10.5 37.875 10.1875C37.875 9.75 37.6458 9.53125 37.1875 9.53125C36.7083 9.53125 36.1667 9.79167 35.5625 10.3125C34.9792 10.8333 34.375 11.5312 33.75 12.4062C33.125 13.2604 32.5208 14.2188 31.9375 15.2812C31.3542 16.3438 30.8438 17.4271 30.4062 18.5312C29.9688 19.6146 29.6458 20.6458 29.4375 21.625H27.75C28.25 19.9792 28.6875 18.4375 29.0625 17C29.4375 15.5417 29.7396 14.2812 29.9688 13.2188C30.2188 12.1354 30.4062 11.3333 30.5312 10.8125L32.5 2.28125L30.25 1.96875L30.375 1.25L34.2188 0L34.625 0.375C34.5 0.875 34.3229 1.59375 34.0938 2.53125C33.8646 3.44792 33.6042 4.47917 33.3125 5.625C33.0417 6.75 32.7604 7.90625 32.4688 9.09375L31.8125 11.75Z" fill="white"/>
<path d="M46.6562 21.875C45.9896 21.875 45.3542 21.6875 44.75 21.3125C44.1458 20.9375 43.6562 20.3958 43.2812 19.6875C42.9062 18.9792 42.7188 18.1458 42.7188 17.1875C42.7188 16.1042 42.8958 15.0312 43.25 13.9688C43.6042 12.8854 44.0938 11.9062 44.7188 11.0312C45.3646 10.1354 46.1146 9.42708 46.9688 8.90625C47.8438 8.36458 48.7812 8.09375 49.7812 8.09375C50.4688 8.09375 51.1146 8.28125 51.7188 8.65625C52.3229 9.03125 52.8125 9.57292 53.1875 10.2812C53.5625 10.9688 53.75 11.8021 53.75 12.7812C53.75 13.8646 53.5729 14.9479 53.2188 16.0312C52.8646 17.0938 52.3646 18.0729 51.7188 18.9688C51.0729 19.8438 50.3125 20.5521 49.4375 21.0938C48.5833 21.6146 47.6562 21.875 46.6562 21.875ZM47.25 20.6562C47.9792 20.6562 48.625 20.4375 49.1875 20C49.75 19.5625 50.2292 18.9792 50.625 18.25C51.0417 17.5208 51.3542 16.7188 51.5625 15.8438C51.7708 14.9688 51.875 14.0938 51.875 13.2188C51.875 11.9896 51.6146 11.0208 51.0938 10.3125C50.5729 9.60417 49.9479 9.25 49.2188 9.25C48.5104 9.25 47.875 9.47917 47.3125 9.9375C46.75 10.375 46.2604 10.9583 45.8438 11.6875C45.4479 12.4167 45.1458 13.2292 44.9375 14.125C44.7292 15 44.625 15.8854 44.625 16.7812C44.625 18.0521 44.875 19.0208 45.375 19.6875C45.8958 20.3333 46.5208 20.6562 47.25 20.6562Z" fill="white"/>
<path d="M60.0938 21.875C58.9896 21.875 58.0208 21.4583 57.1875 20.625C56.375 19.7917 55.9688 18.6458 55.9688 17.1875C55.9688 16.1042 56.1458 15.0312 56.5 13.9688C56.875 12.8854 57.3854 11.9062 58.0312 11.0312C58.6771 10.1354 59.4375 9.42708 60.3125 8.90625C61.2083 8.36458 62.1875 8.09375 63.25 8.09375C64.1875 8.09375 64.8854 8.33333 65.3438 8.8125C65.8021 9.27083 66.0312 9.77083 66.0312 10.3125C66.0312 10.9375 65.8333 11.5312 65.4375 12.0938C65.0625 12.6562 64.5 13.2083 63.75 13.75C63.0208 14.2708 62.125 14.7812 61.0625 15.2812C60.0208 15.7812 58.8333 16.2708 57.5 16.75V15.5625C58.875 15.0417 60.0625 14.5312 61.0625 14.0312C62.0625 13.5312 62.8333 13.0104 63.375 12.4688C63.9167 11.9062 64.1875 11.3125 64.1875 10.6875C64.1875 10.2083 64.0312 9.85417 63.7188 9.625C63.4062 9.39583 63.0104 9.28125 62.5312 9.28125C61.6771 9.28125 60.8958 9.60417 60.1875 10.25C59.4792 10.875 58.9167 11.7396 58.5 12.8438C58.0833 13.9479 57.875 15.2083 57.875 16.625C57.875 17.7708 58.1458 18.6771 58.6875 19.3438C59.2292 20.0104 59.9271 20.3438 60.7812 20.3438C61.2604 20.3438 61.8333 20.1667 62.5 19.8125C63.1667 19.4583 63.7917 18.8542 64.375 18L65.0312 18.875C64.3854 19.7708 63.625 20.5 62.75 21.0625C61.8958 21.6042 61.0104 21.875 60.0938 21.875Z" fill="white"/>
<path d="M69.8438 21.875C69.2812 21.875 68.7396 21.7812 68.2188 21.5938C67.7188 21.3854 67.3021 21.1146 66.9688 20.7812C66.6562 20.4479 66.5 20.0833 66.5 19.6875C66.5 19.4583 66.5417 19.25 66.625 19.0625C66.7083 18.875 66.8229 18.6979 66.9688 18.5312C67.5104 19.1979 68.0833 19.7083 68.6875 20.0625C69.2917 20.3958 69.8854 20.5625 70.4688 20.5625C71.0938 20.5625 71.5938 20.4062 71.9688 20.0938C72.3438 19.7604 72.5312 19.2708 72.5312 18.625C72.5312 18.25 72.4167 17.8542 72.1875 17.4375C71.9792 17 71.5729 16.4896 70.9688 15.9062C70.2396 15.1771 69.6875 14.5833 69.3125 14.125C68.9583 13.6458 68.7188 13.2396 68.5938 12.9062C68.4896 12.5521 68.4375 12.2083 68.4375 11.875C68.4375 11.1667 68.625 10.5312 69 9.96875C69.375 9.40625 69.8854 8.95833 70.5312 8.625C71.1979 8.27083 71.9479 8.09375 72.7812 8.09375C73.2188 8.09375 73.6562 8.15625 74.0938 8.28125C74.5312 8.40625 74.8958 8.58333 75.1875 8.8125C75.4792 9.04167 75.625 9.3125 75.625 9.625C75.625 9.83333 75.5833 10.0104 75.5 10.1562C75.4375 10.3021 75.3229 10.4583 75.1562 10.625C74.7188 10.2083 74.2188 9.88542 73.6562 9.65625C73.1146 9.42708 72.5521 9.3125 71.9688 9.3125C71.3229 9.3125 70.8229 9.5 70.4688 9.875C70.1146 10.2292 69.9375 10.7083 69.9375 11.3125C69.9375 11.5625 69.9792 11.8333 70.0625 12.125C70.1667 12.3958 70.3438 12.6979 70.5938 13.0312C70.8438 13.3646 71.1771 13.75 71.5938 14.1875C72.2812 14.8958 72.7917 15.4792 73.125 15.9375C73.4792 16.3958 73.7188 16.7917 73.8438 17.125C73.9688 17.4375 74.0312 17.7708 74.0312 18.125C74.0312 18.7917 73.8229 19.4167 73.4062 20C73.0104 20.5625 72.4896 21.0208 71.8438 21.375C71.1979 21.7083 70.5312 21.875 69.8438 21.875Z" fill="white"/>
<path d="M79.0723 32.441C77.6643 33.433 76.1282 34.393 74.4642 35.321C72.8002 36.217 71.0402 36.969 69.1842 37.577C67.3602 38.153 65.4403 38.441 63.4243 38.441C61.5363 38.441 59.9363 37.945 58.6243 36.953C57.3443 35.929 56.7043 34.393 56.7043 32.345C56.7043 30.745 56.9762 29.321 57.5202 28.073C58.0642 26.793 58.8322 25.785 59.8242 25.049C60.8482 24.281 62.0643 23.897 63.4723 23.897C64.9443 23.897 66.0963 24.393 66.9283 25.385C67.7923 26.345 68.4162 27.593 68.8002 29.129C69.1842 30.633 69.3763 32.201 69.3763 33.833C69.3763 34.281 69.3602 34.729 69.3282 35.177C69.3282 35.625 69.2963 36.057 69.2323 36.473C70.9283 35.961 72.5763 35.257 74.1763 34.361C75.7763 33.465 77.3442 32.409 78.8802 31.193L79.0723 31.337V32.441ZM58.1442 31.865C58.1442 33.369 58.4163 34.521 58.9603 35.321C59.5363 36.121 60.2563 36.665 61.1203 36.953C61.9843 37.241 62.8802 37.385 63.8083 37.385C64.1923 37.385 64.5763 37.369 64.9603 37.337C65.3763 37.305 65.7923 37.257 66.2083 37.193C66.2723 36.745 66.3202 36.297 66.3522 35.849C66.3842 35.369 66.4003 34.921 66.4003 34.505C66.4003 33.033 66.2882 31.577 66.0642 30.137C65.8402 28.697 65.4402 27.497 64.8643 26.537C64.3202 25.577 63.5682 25.097 62.6082 25.097C61.8722 25.097 61.1522 25.369 60.4482 25.913C59.7762 26.457 59.2163 27.241 58.7682 28.265C58.3523 29.257 58.1442 30.457 58.1442 31.865ZM65.8723 39.161C66.4163 39.097 66.9443 39.017 67.4563 38.921C68.0003 38.793 68.4643 38.665 68.8483 38.537C68.3683 40.553 67.6323 42.297 66.6403 43.769C65.6803 45.241 64.5763 46.473 63.3283 47.465C62.0803 48.425 60.7843 49.145 59.4403 49.625C58.1283 50.105 56.8803 50.345 55.6963 50.345C54.5123 50.345 53.4563 50.089 52.5283 49.577C51.6323 49.033 50.9283 48.281 50.4163 47.321C49.9363 46.329 49.6963 45.177 49.6963 43.865C49.6963 42.553 49.9363 41.289 50.4163 40.073C50.9283 38.825 51.6003 37.673 52.4323 36.617C53.2963 35.529 54.2243 34.585 55.2163 33.785C55.2483 33.817 55.3122 33.897 55.4082 34.025C55.5042 34.121 55.6003 34.233 55.6963 34.361C55.8243 34.457 55.9042 34.521 55.9362 34.553C55.0402 35.417 54.2563 36.537 53.5843 37.913C52.9443 39.289 52.6243 40.841 52.6243 42.569C52.6243 43.945 52.8162 45.113 53.2002 46.073C53.6162 47.033 54.1922 47.769 54.9282 48.281C55.6962 48.793 56.5922 49.049 57.6162 49.049C58.6722 49.049 59.6322 48.777 60.4963 48.233C61.3923 47.689 62.1923 46.953 62.8963 46.025C63.6003 45.097 64.1922 44.041 64.6722 42.857C65.1842 41.673 65.5843 40.441 65.8723 39.161Z" fill="#FFC942"/>
<path d="M76.3497 50.537C75.9337 52.169 75.3577 53.657 74.6217 55.001C73.8857 56.345 73.0537 57.513 72.1257 58.505C71.1977 59.497 70.2057 60.265 69.1497 60.809C68.0937 61.353 67.0217 61.625 65.9337 61.625C64.5257 61.625 63.4218 61.353 62.6217 60.809C61.7898 60.265 61.3737 59.545 61.3737 58.649C61.3737 57.977 61.5177 57.353 61.8057 56.777C62.0617 56.201 62.4457 55.657 62.9577 55.145C63.4377 54.633 64.0297 54.121 64.7337 53.609C65.4377 53.097 66.2058 52.585 67.0378 52.073C67.7418 51.657 68.4778 51.225 69.2458 50.777C70.0138 50.361 70.8138 49.913 71.6458 49.433C72.4778 48.953 73.3258 48.457 74.1898 47.945C74.4458 46.889 74.7178 45.801 75.0058 44.681C75.2938 43.561 75.5818 42.425 75.8698 41.273C76.1578 40.121 76.4457 38.969 76.7337 37.817C77.0217 36.665 77.2938 35.545 77.5498 34.457C77.8378 33.369 78.0937 32.329 78.3177 31.337C78.5737 30.345 78.7978 29.433 78.9898 28.601H75.5338L76.0618 27.449H79.2777C79.3737 27.065 79.4538 26.697 79.5178 26.345C79.6138 25.993 79.6938 25.673 79.7578 25.385C80.1418 23.689 80.6058 22.137 81.1497 20.729C81.7257 19.289 82.4138 18.041 83.2138 16.985C84.0138 15.929 84.9417 15.113 85.9977 14.537C87.0537 13.929 88.2537 13.625 89.5977 13.625C90.5257 13.625 91.3738 13.881 92.1418 14.393C92.9098 14.905 93.2938 15.753 93.2938 16.937C93.2938 18.025 92.9898 18.953 92.3818 19.721C91.9018 20.073 91.3418 20.393 90.7018 20.681C90.0618 20.937 89.3898 21.193 88.6858 21.449L88.3978 21.113C89.1018 20.569 89.6618 19.945 90.0778 19.241C90.4938 18.537 90.7018 17.785 90.7018 16.985C90.7018 16.185 90.4938 15.593 90.0778 15.209C89.6938 14.825 89.1817 14.633 88.5417 14.633C87.6457 14.633 86.8938 14.905 86.2858 15.449C85.7098 15.961 85.2138 16.697 84.7978 17.657C84.3818 18.585 84.0137 19.689 83.6937 20.969C83.3737 22.217 83.0698 23.577 82.7818 25.049C82.7178 25.369 82.6377 25.737 82.5417 26.153C82.4457 26.569 82.3498 27.001 82.2538 27.449H87.8217L87.2937 28.601H82.0137C81.6297 30.201 81.1818 31.993 80.6698 33.977C80.1898 35.929 79.6778 37.929 79.1338 39.977C78.6218 42.025 78.1097 43.977 77.5977 45.833C78.9737 44.905 80.3817 43.913 81.8217 42.857C83.2937 41.769 84.7177 40.665 86.0938 39.545C87.4697 38.393 88.7017 37.289 89.7897 36.233H89.9338V37.625C88.6858 38.841 87.2618 40.089 85.6618 41.369C84.0618 42.617 82.4297 43.817 80.7657 44.969C79.1337 46.089 77.5978 47.081 76.1578 47.945C75.4858 48.361 74.8298 48.745 74.1898 49.097C73.5498 49.449 72.9257 49.785 72.3177 50.105C71.7417 50.457 71.1658 50.793 70.5898 51.113C70.0458 51.433 69.5178 51.737 69.0058 52.025C68.5258 52.345 68.0617 52.665 67.6137 52.985C66.6217 53.721 65.8377 54.521 65.2617 55.385C64.6537 56.249 64.3497 57.289 64.3497 58.505C64.3497 59.177 64.5738 59.721 65.0218 60.137C65.4698 60.585 66.0298 60.809 66.7018 60.809C67.5338 60.809 68.3818 60.409 69.2458 59.609C70.1098 58.809 70.8937 57.705 71.5977 56.297C72.3337 54.921 72.9098 53.353 73.3258 51.593C73.3898 51.401 73.4377 51.193 73.4697 50.969C73.5337 50.777 73.5817 50.569 73.6137 50.345L76.9258 48.377C76.8298 48.761 76.7337 49.129 76.6377 49.481C76.5417 49.833 76.4457 50.185 76.3497 50.537Z" fill="#FFC942"/>
<path d="M106.531 29.1562L106.156 34L105.062 34.1562L104.438 30.6562C104.354 30.6146 104.208 30.5938 104 30.5938C103.792 30.5729 103.615 30.5625 103.469 30.5625H102.281C102.073 30.5625 101.76 30.5625 101.344 30.5625C100.927 30.5625 100.542 30.5833 100.188 30.625C100.146 30.875 100.073 31.1875 99.9688 31.5625C99.8854 31.9167 99.7708 32.3958 99.625 33C99.5 33.6042 99.3333 34.3854 99.125 35.3438L97.75 41.8125C97.5208 42.8958 97.3542 43.7292 97.25 44.3125C97.1458 44.8958 97.0729 45.3229 97.0312 45.5938C97.0104 45.8438 96.9896 46.0521 96.9688 46.2188L99.5 46.5625L99.2188 47.625H92L92.1562 46.5625L94.8125 46.2188C94.875 46.0104 94.9375 45.75 95 45.4375C95.0833 45.1042 95.1875 44.6562 95.3125 44.0938C95.4375 43.5312 95.6042 42.7708 95.8125 41.8125L97.1875 35.3438C97.4792 33.9271 97.6979 32.8542 97.8438 32.125C98.0104 31.375 98.1146 30.875 98.1562 30.625C97.8229 30.5833 97.4479 30.5625 97.0312 30.5625C96.6354 30.5625 96.3229 30.5625 96.0938 30.5625H94.9062C94.7604 30.5625 94.5938 30.5729 94.4062 30.5938C94.2396 30.5938 94.0729 30.6146 93.9062 30.6562L91.8125 34.1875L90.6562 34L92.375 29.1562C92.7083 29.1771 92.9896 29.1979 93.2188 29.2188C93.4688 29.2396 93.7083 29.2604 93.9375 29.2812C94.1667 29.2812 94.4271 29.2812 94.7188 29.2812H104.125C104.438 29.2812 104.698 29.2812 104.906 29.2812C105.135 29.2604 105.375 29.2396 105.625 29.2188C105.875 29.1979 106.177 29.1771 106.531 29.1562Z" fill="white"/>
<path d="M108.219 47.875C107.885 47.875 107.625 47.7708 107.438 47.5625C107.271 47.3333 107.188 47.0625 107.188 46.75C107.188 46.4583 107.271 45.9479 107.438 45.2188C107.625 44.4688 107.844 43.6146 108.094 42.6562C108.344 41.6979 108.594 40.7292 108.844 39.75C109.115 38.7708 109.333 37.8958 109.5 37.125C109.688 36.3333 109.781 35.7708 109.781 35.4375C109.323 35.6667 108.875 35.9792 108.438 36.375C108 36.75 107.573 37.2292 107.156 37.8125L106.531 36.9062C107.052 36.3021 107.552 35.7917 108.031 35.375C108.51 34.9583 108.948 34.6458 109.344 34.4375C109.76 34.2083 110.135 34.0938 110.469 34.0938C110.802 34.0938 111.052 34.1979 111.219 34.4062C111.406 34.6146 111.5 34.9062 111.5 35.2812C111.5 35.5729 111.406 36.0938 111.219 36.8438C111.052 37.5938 110.844 38.4583 110.594 39.4375C110.344 40.4167 110.083 41.3958 109.812 42.375C109.562 43.3333 109.344 44.1979 109.156 44.9688C108.99 45.7188 108.906 46.2396 108.906 46.5312C109.385 46.2812 109.833 45.9688 110.25 45.5938C110.667 45.2188 111.083 44.7708 111.5 44.25L112.156 45.0625C111.635 45.6667 111.135 46.1771 110.656 46.5938C110.177 47.0104 109.729 47.3333 109.312 47.5625C108.896 47.7708 108.531 47.875 108.219 47.875ZM111.469 30.1875C111.198 30.1875 110.938 30.0833 110.688 29.875C110.458 29.6458 110.344 29.375 110.344 29.0625C110.344 28.625 110.438 28.2604 110.625 27.9688C110.812 27.6771 111.042 27.4583 111.312 27.3125C111.604 27.1458 111.896 27.0625 112.188 27.0625C112.438 27.0625 112.667 27.1667 112.875 27.375C113.104 27.5833 113.219 27.8438 113.219 28.1562C113.219 28.6146 113.125 29 112.938 29.3125C112.771 29.6042 112.552 29.8229 112.281 29.9688C112.031 30.1146 111.76 30.1875 111.469 30.1875Z" fill="white"/>
<path d="M130.062 47.875C129.729 47.875 129.479 47.7708 129.312 47.5625C129.146 47.3333 129.062 47.0625 129.062 46.75C129.062 46.5 129.146 46.0312 129.312 45.3438C129.5 44.6562 129.719 43.8646 129.969 42.9688C130.219 42.0521 130.469 41.1354 130.719 40.2188C130.969 39.3021 131.177 38.4792 131.344 37.75C131.531 37.0208 131.625 36.5 131.625 36.1875C131.625 35.75 131.427 35.5312 131.031 35.5312C130.615 35.5312 130.125 35.7917 129.562 36.3125C129.021 36.8333 128.448 37.5312 127.844 38.4062C127.24 39.2604 126.646 40.2188 126.062 41.2812C125.5 42.3438 125 43.4271 124.562 44.5312C124.125 45.6146 123.802 46.6458 123.594 47.625H121.906C122.115 46.9167 122.344 46.1146 122.594 45.2188C122.844 44.3021 123.094 43.375 123.344 42.4375C123.594 41.4792 123.812 40.5729 124 39.7188C124.208 38.8438 124.365 38.0938 124.469 37.4688C124.594 36.8438 124.656 36.4167 124.656 36.1875C124.656 35.75 124.458 35.5312 124.062 35.5312C123.646 35.5312 123.156 35.7917 122.594 36.3125C122.031 36.8333 121.448 37.5312 120.844 38.4062C120.24 39.2604 119.656 40.2188 119.094 41.2812C118.531 42.3438 118.031 43.4271 117.594 44.5312C117.156 45.6146 116.833 46.6458 116.625 47.625H114.938C115.312 46.3958 115.667 45.1562 116 43.9062C116.333 42.6562 116.625 41.4792 116.875 40.375C117.125 39.25 117.312 38.2604 117.438 37.4062C117.583 36.5312 117.656 35.8646 117.656 35.4062C117.177 35.6562 116.719 35.9792 116.281 36.375C115.865 36.75 115.448 37.2292 115.031 37.8125L114.406 36.9062C114.927 36.2812 115.427 35.7604 115.906 35.3438C116.385 34.9271 116.833 34.6146 117.25 34.4062C117.688 34.1979 118.062 34.0938 118.375 34.0938C118.729 34.0938 118.969 34.1979 119.094 34.4062C119.219 34.5938 119.281 34.8646 119.281 35.2188C119.281 35.5938 119.24 36.0938 119.156 36.7188C119.073 37.3229 118.917 38.1354 118.688 39.1562C118.458 40.1771 118.125 41.5 117.688 43.125H117.375C117.75 42.125 118.208 41.1042 118.75 40.0625C119.292 39 119.875 38.0208 120.5 37.125C121.146 36.2292 121.812 35.5 122.5 34.9375C123.188 34.375 123.875 34.0938 124.562 34.0938C125.104 34.0938 125.531 34.2604 125.844 34.5938C126.156 34.9062 126.312 35.3229 126.312 35.8438C126.312 36.1979 126.25 36.6979 126.125 37.3438C126 37.9896 125.812 38.7917 125.562 39.75C125.312 40.6875 124.99 41.8125 124.594 43.125H124.438C124.75 42.1875 125.167 41.1979 125.688 40.1562C126.208 39.1146 126.792 38.1354 127.438 37.2188C128.083 36.2812 128.75 35.5312 129.438 34.9688C130.146 34.3854 130.844 34.0938 131.531 34.0938C132.094 34.0938 132.531 34.2604 132.844 34.5938C133.156 34.9062 133.312 35.3229 133.312 35.8438C133.312 36.1771 133.229 36.7083 133.062 37.4375C132.896 38.1667 132.688 38.9896 132.438 39.9062C132.188 40.8021 131.927 41.6979 131.656 42.5938C131.406 43.4896 131.198 44.2917 131.031 45C130.865 45.7083 130.781 46.2188 130.781 46.5312C131.26 46.2812 131.708 45.9688 132.125 45.5938C132.542 45.2188 132.958 44.7708 133.375 44.25L134.031 45.0625C133.51 45.6667 133.01 46.1771 132.531 46.5938C132.052 47.0104 131.604 47.3333 131.188 47.5625C130.771 47.7708 130.396 47.875 130.062 47.875Z" fill="white"/>
<path d="M140.656 47.875C139.552 47.875 138.583 47.4583 137.75 46.625C136.938 45.7917 136.531 44.6458 136.531 43.1875C136.531 42.1042 136.708 41.0312 137.062 39.9688C137.438 38.8854 137.948 37.9062 138.594 37.0312C139.24 36.1354 140 35.4271 140.875 34.9062C141.771 34.3646 142.75 34.0938 143.812 34.0938C144.75 34.0938 145.448 34.3333 145.906 34.8125C146.365 35.2708 146.594 35.7708 146.594 36.3125C146.594 36.9375 146.396 37.5312 146 38.0938C145.625 38.6562 145.062 39.2083 144.312 39.75C143.583 40.2708 142.688 40.7812 141.625 41.2812C140.583 41.7812 139.396 42.2708 138.062 42.75V41.5625C139.438 41.0417 140.625 40.5312 141.625 40.0312C142.625 39.5312 143.396 39.0104 143.938 38.4688C144.479 37.9062 144.75 37.3125 144.75 36.6875C144.75 36.2083 144.594 35.8542 144.281 35.625C143.969 35.3958 143.573 35.2812 143.094 35.2812C142.24 35.2812 141.458 35.6042 140.75 36.25C140.042 36.875 139.479 37.7396 139.062 38.8438C138.646 39.9479 138.438 41.2083 138.438 42.625C138.438 43.7708 138.708 44.6771 139.25 45.3438C139.792 46.0104 140.49 46.3438 141.344 46.3438C141.823 46.3438 142.396 46.1667 143.062 45.8125C143.729 45.4583 144.354 44.8542 144.938 44L145.594 44.875C144.948 45.7708 144.188 46.5 143.312 47.0625C142.458 47.6042 141.573 47.875 140.656 47.875Z" fill="white"/>
</svg>
