{
	"asset":{
		"generator":"Khronos glTF Blender I/O v4.4.56",
		"version":"2.0"
	},
	"scene":0,
	"scenes":[
		{
			"name":"Scene",
			"nodes":[
				0
			]
		}
	],
	"nodes":[
		{
			"mesh":0,
			"name":"Delorean_SM.001",
			"rotation":[
				-0.5310821533203125,
				0.5310821533203125,
				-0.46685299277305603,
				0.4668530225753784
			],
			"translation":[
				-0.8727273941040039,
				9.69796371459961,
				2.8883724212646484
			]
		}
	],
	"materials":[
		{
			"doubleSided":true,
			"name":"deloreanBaked",
			"pbrMetallicRoughness":{
				"baseColorTexture":{
					"index":0
				},
				"metallicFactor":0,
				"roughnessFactor":0.5
			}
		}
	],
	"meshes":[
		{
			"name":"Plane.003",
			"primitives":[
				{
					"attributes":{
						"POSITION":0,
						"NORMAL":1,
						"TEXCOORD_0":2
					},
					"indices":3,
					"material":0
				}
			]
		}
	],
	"textures":[
		{
			"sampler":0,
			"source":0
		}
	],
	"images":[
		{
			"mimeType":"image/png",
			"name":"deloreanBaked",
			"uri":"tex/deloreanBaked.png"
		}
	],
	"accessors":[
		{
			"bufferView":0,
			"componentType":5126,
			"count":6061,
			"max":[
				0.00410624360665679,
				0.1493500918149948,
				0.33392342925071716
			],
			"min":[
				-0.18954116106033325,
				-0.14957880973815918,
				-0.345568984746933
			],
			"type":"VEC3"
		},
		{
			"bufferView":1,
			"componentType":5126,
			"count":6061,
			"type":"VEC3"
		},
		{
			"bufferView":2,
			"componentType":5126,
			"count":6061,
			"type":"VEC2"
		},
		{
			"bufferView":3,
			"componentType":5123,
			"count":14970,
			"type":"SCALAR"
		}
	],
	"bufferViews":[
		{
			"buffer":0,
			"byteLength":72732,
			"byteOffset":0,
			"target":34962
		},
		{
			"buffer":0,
			"byteLength":72732,
			"byteOffset":72732,
			"target":34962
		},
		{
			"buffer":0,
			"byteLength":48488,
			"byteOffset":145464,
			"target":34962
		},
		{
			"buffer":0,
			"byteLength":29940,
			"byteOffset":193952,
			"target":34963
		}
	],
	"samplers":[
		{
			"magFilter":9729,
			"minFilter":9987
		}
	],
	"buffers":[
		{
			"byteLength":223892,
			"uri":"GO_DM_delorean.bin"
		}
	]
}
