{
	"asset":{
		"generator":"Khronos glTF Blender I/O v4.4.56",
		"version":"2.0"
	},
	"scene":0,
	"scenes":[
		{
			"name":"Scene",
			"nodes":[
				0
			]
		}
	],
	"nodes":[
		{
			"mesh":0,
			"name":"TimeMachine_SM.002",
			"translation":[
				-1.017408847808838,
				9.138752937316895,
				0.25068527460098267
			]
		}
	],
	"materials":[
		{
			"doubleSided":true,
			"name":"TimeMachine_combined",
			"pbrMetallicRoughness":{
				"baseColorTexture":{
					"index":0
				},
				"metallicFactor":0,
				"roughnessFactor":0.5
			}
		}
	],
	"meshes":[
		{
			"name":"Plane.002",
			"primitives":[
				{
					"attributes":{
						"POSITION":0,
						"NORMAL":1,
						"TEXCOORD_0":2
					},
					"indices":3,
					"material":0
				}
			]
		}
	],
	"textures":[
		{
			"sampler":0,
			"source":0
		}
	],
	"images":[
		{
			"mimeType":"image/png",
			"name":"GX_combined_Timemachine_tex",
			"uri":"tex/GX_combined_Timemachine_tex.png"
		}
	],
	"accessors":[
		{
			"bufferView":0,
			"componentType":5126,
			"count":13561,
			"max":[
				0.18376727402210236,
				1.7943228483200073,
				0.7528111338615417
			],
			"min":[
				-0.7788383364677429,
				-0.193900927901268,
				-0.5005609393119812
			],
			"type":"VEC3"
		},
		{
			"bufferView":1,
			"componentType":5126,
			"count":13561,
			"type":"VEC3"
		},
		{
			"bufferView":2,
			"componentType":5126,
			"count":13561,
			"type":"VEC2"
		},
		{
			"bufferView":3,
			"componentType":5123,
			"count":57288,
			"type":"SCALAR"
		}
	],
	"bufferViews":[
		{
			"buffer":0,
			"byteLength":162732,
			"byteOffset":0,
			"target":34962
		},
		{
			"buffer":0,
			"byteLength":162732,
			"byteOffset":162732,
			"target":34962
		},
		{
			"buffer":0,
			"byteLength":108488,
			"byteOffset":325464,
			"target":34962
		},
		{
			"buffer":0,
			"byteLength":114576,
			"byteOffset":433952,
			"target":34963
		}
	],
	"samplers":[
		{
			"magFilter":9729,
			"minFilter":9987
		}
	],
	"buffers":[
		{
			"byteLength":548528,
			"uri":"GO_DM_Timemachine.bin"
		}
	]
}
